# xmcd
#
# Track frame offsets:
#	150
#	14562
#	29287
#	43487
#	57565
#	71857
#	89385
#	106927
#	123465
#	139650
#
# Disc length: 2056 seconds
#
# Revision: 2
# Processed by: cddbd v1.5.2PL0 Copyright (c) Steve Scherf et al.
# Submitted via: EasyCDDAExtractor 10.0.2.1
#
DISCID=9508060a
DTITLE=Kenny Rogers - If Only My Heart Had A Voice
DYEAR=1993
DGENRE=Country
TTITLE0=Fightin' For The Same Thing
TTITLE1=Missing You
TTITLE2=She Waits
TTITLE3=Ol' Red
TTITLE4=If I Were You
TTITLE5=Wanderin' Man
TTITLE6=Reason To Go
TTITLE7=If You Were The Friend
TTITLE8=If Only My Heart Had A Voice
TTITLE9=Somebody's Wrong, Somebody's Right
EXTD=
EXTT0=
EXTT1=
EXTT2=
EXTT3=
EXTT4=
EXTT5=
EXTT6=
EXTT7=
EXTT8=
EXTT9=
PLAYORDER=
